<svg width="89" height="47" viewBox="0 0 89 47" fill="none" xmlns="http://www.w3.org/2000/svg">
<g filter="url(#filter0_d_0_219)">
<path fill-rule="evenodd" clip-rule="evenodd" d="M26.4581 0.14302C26.37 0.257398 26.2893 0.660181 26.2788 1.03806C26.2621 1.63158 25.8672 2.72702 25.6697 2.72702C25.6331 2.72702 25.0206 2.80666 24.3083 2.90383C23.0671 3.07344 22.0391 3.34791 14.8205 5.43639C13.0454 5.94994 10.8109 6.58705 9.85502 6.85202C8.89916 7.11699 7.53595 7.51404 6.82572 7.73428C6.11548 7.95451 5.18924 8.1346 4.76717 8.1346H4L4.48613 8.63964C5.10036 9.27773 5.71542 9.53304 7.18075 9.75819C9.6367 10.1354 10.9294 10.0135 14.8295 9.03734C17.8983 8.26914 18.6145 8.14329 19.7258 8.17704C21.2648 8.22375 23.1608 8.03579 23.6233 7.79081C23.8043 7.69495 23.9915 7.65513 24.0394 7.70249C24.0871 7.74985 23.8219 9.10158 23.4496 10.7063C20.9008 21.6989 20.4559 23.774 20.1171 26.2461C19.2678 32.4432 19.6351 37.162 21.0693 38.4793C21.6933 39.0524 22.2193 39.1543 22.6017 38.7758C22.8647 38.5154 22.8847 38.3797 22.7377 37.853C22.4499 36.8205 22.721 34.294 23.2629 32.9603C24.2337 30.5708 25.1639 26.932 25.4016 24.5936C25.602 22.6205 25.8687 21.2804 26.1492 20.8342C26.2626 20.654 26.4 20.0709 26.4546 19.5387C26.5091 19.0063 26.6215 18.527 26.7044 18.4736C26.7871 18.42 26.8985 17.7863 26.9517 17.0653C27.005 16.3443 27.1695 15.3488 27.3173 14.8531C27.4651 14.3574 27.6543 13.5463 27.7377 13.0506C27.9519 11.7785 28.7532 9.1278 28.6295 10.101C28.5779 10.5066 28.4994 11.2808 28.4551 11.8216C28.4107 12.3623 28.3059 13.0997 28.2222 13.4603C28.0666 14.1306 28.0055 15.2913 28.1325 15.1656C28.1712 15.1273 28.2419 14.8017 28.2894 14.442C28.4089 13.5379 28.686 12.5632 28.7081 12.9687C28.7778 14.2401 30.2137 9.15139 30.2137 7.63301C30.2137 6.67865 30.216 6.67423 30.7516 6.58869C32.5371 6.3034 34.511 6.17837 35.7463 6.27243C36.555 6.33404 37.1656 6.31716 37.1659 6.23343C37.1666 6.00385 41.7537 5.91455 46.9396 6.04302C48.6585 6.08562 48.706 6.07661 49.9189 5.48178C51.3271 4.79141 52.393 3.90145 52.393 3.41657C52.393 2.93005 50.8685 1.64715 49.9467 1.35792C49.418 1.19209 47.9352 1.06919 45.3585 0.977753C40.7942 0.81569 38.7218 0.85682 35.4275 1.17521C31.9193 1.51409 31.1495 1.48836 29.9654 0.992337C27.7162 0.0501075 26.716 -0.192086 26.4581 0.14302ZM53.6146 7.5732C53.767 8.85824 54.2604 9.74082 54.9961 10.0451C55.9202 10.4274 56.3655 10.1556 56.3655 9.20891C56.3655 8.61358 56.2635 8.35877 55.829 7.86881C55.3207 7.29577 54.2362 6.67128 53.7357 6.66341C53.5541 6.66063 53.5288 6.85104 53.6146 7.5732ZM57.5459 8.60457C57.3519 8.79662 57.193 9.14943 57.193 9.38834C57.193 9.7926 56.2367 13.8771 55.2997 17.475C54.5054 20.5245 53.6303 26.3906 53.4663 29.7649C53.1672 35.9174 54.4229 38.9414 57.2771 38.9414C58.7627 38.9414 59.8028 38.087 61.2954 35.6403C62.6468 33.4254 64.6786 28.9272 65.5408 26.2418C66.9247 21.9307 67.2746 20.9635 68.1331 19.0763C69.6315 15.7819 69.9099 15.2951 71.6009 13.0098C72.5177 11.7705 73.2269 10.6911 73.1769 10.6108C73.1268 10.5307 72.8992 10.4186 72.6709 10.3619C71.6414 10.1061 69.2052 12.0459 67.74 14.2881C67.33 14.9157 66.0429 17.1982 64.8798 19.3606C62.9592 22.9317 62.3064 24.2608 60.3332 28.6179C58.4369 32.8053 58.0431 33.6084 57.8553 33.6703C57.4344 33.8093 57.7697 29.6142 58.5865 24.5212C58.7239 23.665 58.9224 22.3746 59.0275 21.6536C59.1328 20.9325 59.3549 19.7527 59.5212 19.0317C59.6874 18.3107 60.055 16.0985 60.3379 14.1157C60.6209 12.1329 60.9183 10.2655 60.999 9.96581C61.0796 9.66626 61.1037 9.31329 61.0527 9.18138C60.8993 8.78548 60.0605 8.45496 58.9482 8.35205C58.023 8.26668 57.8571 8.2965 57.5459 8.60457ZM40.2275 11.0024C38.7623 11.3998 37.9973 11.7175 36.6156 12.5025C35.8711 12.9252 34.9634 13.4275 34.5986 13.6184C34.2336 13.8093 33.5285 14.3496 33.0313 14.819C32.5342 15.2883 32.088 15.6736 32.0395 15.6749C31.9912 15.6764 31.8454 15.7441 31.7156 15.8253C31.5236 15.9456 31.5752 16.081 31.9922 16.5511L32.5046 17.1289L31.3538 19.6223C29.04 24.6351 28.062 28.0002 28.062 30.949C28.062 33.5771 28.8159 35.0997 30.0578 34.9795C30.5171 34.9351 30.7329 34.7504 31.4211 33.8126C32.1886 32.7665 32.3638 32.24 31.7861 32.7145C31.387 33.0424 31.2988 32.7856 31.5057 31.8981C31.8089 30.598 32.162 29.8793 32.4449 29.9868C32.5806 30.0384 33.1228 29.9442 33.6498 29.7775C35.2944 29.2573 36.7806 29.6612 40.0424 31.5147C42.9827 33.1853 44.1049 33.5928 45.8003 33.6053C47.0111 33.6141 47.3085 33.5619 47.7038 33.2707C48.3589 32.7883 48.383 32.4531 47.7715 32.3321C47.4969 32.2776 46.6926 31.9052 45.9844 31.5045C45.2759 31.1039 43.393 30.0684 41.7999 29.2037C40.2068 28.339 38.7961 27.5716 38.665 27.4985C38.1982 27.2381 38.3343 27.0307 39.6401 26.0126C41.0672 24.8996 42.5151 23.4454 43.9902 21.6434C44.5022 21.0181 45.2614 20.146 45.6777 19.7053C46.0939 19.2645 46.6953 18.3882 47.0139 17.7578C47.5152 16.7654 47.593 16.4529 47.593 15.4291C47.593 14.13 47.3515 13.2145 47.0088 13.2145C46.8871 13.2145 46.738 13.0855 46.6772 12.9277C46.4968 12.46 45.007 11.2313 44.3307 10.9924C43.5251 10.708 41.2936 10.7134 40.2275 11.0024ZM44.0265 14.7515C43.5878 16.8377 40.3243 20.2963 35.6509 23.6276C34.9291 24.142 34.293 24.5179 34.2374 24.4627C34.1363 24.3626 36.34 18.1149 36.7715 17.2787C37.1312 16.5814 37.9736 16.0492 40.0007 15.2389C42.0341 14.4261 43.3634 14.0552 43.8359 14.1686C44.0748 14.226 44.1127 14.3417 44.0265 14.7515ZM74.0556 15.3516C72.8846 16.5359 71.4547 18.5578 70.6217 20.2081C69.8528 21.7311 68.6138 25.6001 68.6138 26.4779C68.6138 27.5237 69.1436 29.3127 69.6807 30.0799C70.3224 30.9967 72.9909 32.3783 74.1315 32.3843C74.9705 32.3887 76.7781 31.8249 77.1722 31.4357C77.3824 31.2281 77.6297 31.1042 77.7215 31.1604C77.8134 31.2166 78.1825 31.0323 78.5415 30.7507C79.2468 30.1977 81.1931 27.8893 81.1931 27.606C81.1931 27.5106 81.4432 27.0911 81.7491 26.6734C82.0548 26.2557 82.3524 25.7184 82.4101 25.4792C82.4681 25.2401 82.8325 24.6613 83.2199 24.1931C84.7853 22.3012 85 22.0083 85 21.7645C85 21.5751 84.884 21.6175 84.5448 21.9307C84.2946 22.162 83.531 22.739 82.8483 23.2131C82.1655 23.6871 81.2345 24.4201 80.7793 24.8421C79.3833 26.1359 76.6255 28.0776 75.1688 28.7922C74.1144 29.3095 73.5733 29.4768 72.8959 29.495L72.0069 29.5191L72.0127 28.1751C72.0158 27.4359 72.0746 26.7757 72.1431 26.7077C72.2116 26.6398 72.5071 26.688 72.7994 26.8147C74.0505 27.3569 75.5652 26.9345 76.9092 25.6686C77.2922 25.3079 77.6629 25.0128 77.7331 25.0128C77.9979 25.0128 79.0283 23.5708 79.6649 22.309C80.4135 20.8249 81.1931 18.5193 81.1931 17.7889C81.1931 17.1284 80.7747 16.1819 80.2326 15.6164C79.4639 14.8146 78.5844 14.4561 77.4276 14.4728C76.8587 14.4811 76.3931 14.4374 76.3931 14.3756C76.3931 14.3137 76.1139 14.2588 75.7724 14.2532C75.2191 14.2443 75.0329 14.3635 74.0556 15.3516ZM49.7835 16.6139C49.3204 16.6945 49.0531 17.2064 47.9385 20.1465C47.1976 22.1004 47.0366 22.7462 46.7545 24.8917C46.3079 28.2883 46.3036 29.0424 46.7267 29.8578C47.1956 30.7622 47.4495 30.9357 48.1925 30.8602C48.7439 30.8043 48.863 30.7134 49.1153 30.1575C49.2747 29.8064 49.4046 29.2979 49.4041 29.0275C49.4033 28.56 49.3912 28.5515 49.1601 28.854C48.8134 29.3079 48.8599 29.0121 49.2454 28.3124C49.5112 27.8298 50.1862 26.3164 50.8633 24.6851C50.9539 24.467 50.9312 24.4668 50.6622 24.6838C50.3802 24.9114 50.3678 24.8999 50.4831 24.5199C50.5513 24.2952 50.7417 23.8903 50.906 23.6199C51.0705 23.3496 51.5219 22.4832 51.9092 21.6945C52.2965 20.906 52.6756 20.2607 52.7515 20.2607C52.8275 20.2607 52.8896 20.1476 52.8896 20.0095C52.8896 19.8712 53.0798 19.3868 53.3122 18.9327C53.69 18.1945 53.7119 18.0567 53.5199 17.6272C53.4019 17.3632 53.2119 17.1472 53.0975 17.1472C52.9831 17.1472 52.8896 17.0794 52.8896 16.9963C52.8896 16.7281 50.6869 16.4567 49.7835 16.6139ZM77.6416 18.2533C77.3682 19.7463 75.7681 22.0991 73.8885 23.7722C72.536 24.9759 72.426 24.7603 73.3886 22.7919C74.3321 20.8624 75.0718 19.8051 76.2769 18.663C77.5486 17.4578 77.8011 17.3821 77.6416 18.2533ZM51.3898 23.3155C51.2088 23.7337 51.0891 24.1042 51.1238 24.1386C51.1586 24.173 51.3425 23.8308 51.5325 23.3781C51.7227 22.9253 51.8424 22.5548 51.7987 22.5548C51.755 22.5548 51.5711 22.8971 51.3898 23.3155Z" fill="#FF7424"/>
</g>
<defs>
<filter id="filter0_d_0_219" x="0" y="0" width="89" height="47" filterUnits="userSpaceOnUse" color-interpolation-filters="sRGB">
<feFlood flood-opacity="0" result="BackgroundImageFix"/>
<feColorMatrix in="SourceAlpha" type="matrix" values="0 0 0 0 0 0 0 0 0 0 0 0 0 0 0 0 0 0 127 0" result="hardAlpha"/>
<feOffset dy="4"/>
<feGaussianBlur stdDeviation="2"/>
<feComposite in2="hardAlpha" operator="out"/>
<feColorMatrix type="matrix" values="0 0 0 0 0 0 0 0 0 0 0 0 0 0 0 0 0 0 0.25 0"/>
<feBlend mode="normal" in2="BackgroundImageFix" result="effect1_dropShadow_0_219"/>
<feBlend mode="normal" in="SourceGraphic" in2="effect1_dropShadow_0_219" result="shape"/>
</filter>
</defs>
</svg>
